<svg width="20" height="20" viewBox="0 0 20 20" fill="none" xmlns="http://www.w3.org/2000/svg">
<g clip-path="url(#clip0)">
<path d="M10.0245 0C4.51043 0 0.0246582 4.48577 0.0246582 10C0.0246582 15.5141 4.51043 20 10.0245 20C15.5384 20 20.0242 15.5141 20.0242 10C20.0242 4.48577 15.5384 0 10.0245 0ZM10.0245 19.1848C4.96014 19.1848 0.839952 15.0642 0.839952 10C0.839952 4.93566 4.96014 0.815294 10.0245 0.815294C15.0887 0.815294 19.2089 4.93566 19.2089 10C19.2089 15.0642 15.0887 19.1848 10.0245 19.1848V19.1848Z" fill="#CD1400"/>
<path d="M4.16879 5.00107C3.94374 4.77608 3.94374 4.40161 4.16879 4.16875C4.40171 3.94375 4.7684 3.94375 5.00132 4.16875L9.99705 9.17161L15.0012 4.16875C15.2262 3.94375 15.6008 3.94375 15.8253 4.16875C16.0582 4.40161 16.0582 4.7766 15.8253 5.00107L10.8296 9.99607L15.8253 14.9989C16.0582 15.2239 16.0582 15.5984 15.8253 15.8313C15.6003 16.0562 15.2257 16.0562 15.0012 15.8313L9.99705 10.8284L5.00132 15.8313C4.7684 16.0562 4.40171 16.0562 4.16879 15.8313C3.94374 15.5984 3.94374 15.2234 4.16879 14.9989L9.16452 9.99607L4.16879 5.00107Z" fill="#CD1400"/>
</g>
<defs>
<clipPath id="clip0">
<rect width="20" height="20" fill="white"/>
</clipPath>
</defs>
</svg>
