<svg width="478" height="478" viewBox="0 0 478 478" fill="none" xmlns="http://www.w3.org/2000/svg">
<g clip-path="url(#clip0)">
<path d="M451.209 68.647C434.422 51.848 411.645 42.413 387.897 42.421C364.158 42.365 341.381 51.797 324.631 68.618L209.056 184.194C186.189 207.097 177.447 240.55 186.187 271.712C188.746 280.784 198.175 286.064 207.247 283.505C216.319 280.946 221.599 271.517 219.04 262.445C213.652 243.174 219.058 222.495 233.188 208.327L348.763 92.768C370.371 71.155 405.409 71.151 427.022 92.76C448.635 114.368 448.639 149.406 427.031 171.019L311.456 286.594C303.882 294.178 294.263 299.391 283.774 301.596C274.546 303.517 268.623 312.555 270.544 321.783C272.196 329.718 279.201 335.396 287.306 335.371C288.499 335.372 289.689 335.246 290.856 334.996C307.807 331.421 323.35 322.989 335.588 310.727L451.164 195.169C486.114 160.243 486.134 103.598 451.209 68.647Z" fill="white"/>
<path d="M290.702 206.142C288.143 197.07 278.714 191.79 269.642 194.349C260.57 196.908 255.29 206.337 257.849 215.409C263.237 234.68 257.831 255.359 243.701 269.527L128.125 385.103C106.517 406.716 71.479 406.72 49.866 385.111C28.253 363.503 28.249 328.465 49.857 306.852L165.433 191.259C172.995 183.677 182.603 178.464 193.081 176.257C202.324 174.408 208.318 165.417 206.469 156.175C204.62 146.933 195.629 140.938 186.387 142.787C186.274 142.81 186.162 142.833 186.05 142.858C169.096 146.437 153.548 154.869 141.301 167.127L25.725 282.703C-8.95097 317.914 -8.51697 374.568 26.694 409.244C61.521 443.541 117.425 443.545 152.257 409.252L267.832 293.659C290.7 270.756 299.442 237.303 290.702 206.142Z" fill="white"/>
</g>
<defs>
<clipPath id="clip0">
<rect width="477.389" height="477.389" fill="white"/>
</clipPath>
</defs>
</svg>
